<svg xmlns="http://www.w3.org/2000/svg" width="40.7" height="52" viewBox="0 0 40.7 52">
  <title>doc</title>
  <g id="Layer_2" data-name="Layer 2">
    <g id="Layer_1-2" data-name="Layer 1">
      <g>
        <path d="M31.2,19.1H9.6a.9.9,0,0,0,0,1.8H31.3a.9.9,0,0,0,.9-.9A1.06,1.06,0,0,0,31.2,19.1Z"/>
        <path d="M9.6,13.9h8.7a.9.9,0,0,0,0-1.8H9.6a.9.9,0,0,0,0,1.8Z"/>
        <path d="M31.2,26H9.6a.9.9,0,0,0,0,1.8H31.3a.9.9,0,0,0,.9-.9A1.06,1.06,0,0,0,31.2,26Z"/>
        <path d="M31.2,32.9H9.6a.9.9,0,0,0,0,1.8H31.3a.9.9,0,0,0,.9-.9A1,1,0,0,0,31.2,32.9Z"/>
        <path d="M31.2,39.9H9.6a.9.9,0,0,0,0,1.8H31.3a.9.9,0,0,0,.9-.9A1,1,0,0,0,31.2,39.9Z"/>
        <path d="M28.1,0H0V52H40.7V12.6Zm.5,3,9.2,9.2H28.6ZM1.8,50.3V1.7H26.9V13.8H39V50.2H1.8Z"/>
      </g>
    </g>
  </g>
</svg>
