<svg xmlns="http://www.w3.org/2000/svg" width="19.86" height="25.21" viewBox="0 0 19.86 25.21">
  <title>doc_nav</title>
  <g id="Layer_2" data-name="Layer 2">
    <g id="Layer_1-2" data-name="Layer 1">
      <g>
        <path d="M4.12,9.72a.66.66,0,0,0,.66.66h10.3a.66.66,0,1,0,0-1.32H4.78A.66.66,0,0,0,4.12,9.72Z" fill="#fff"/>
        <path d="M4.78,7.09H8.9a.66.66,0,0,0,0-1.32H4.78a.66.66,0,1,0,0,1.32Z" fill="#fff"/>
        <path d="M15.08,12.36H4.78a.66.66,0,1,0,0,1.32h10.3a.66.66,0,1,0,0-1.32Z" fill="#fff"/>
        <path d="M15.08,15.65H4.78a.66.66,0,0,0,0,1.32h10.3a.66.66,0,1,0,0-1.32Z" fill="#fff"/>
        <path d="M15.08,18.95H4.78a.66.66,0,1,0,0,1.32h10.3a.66.66,0,1,0,0-1.32Z" fill="#fff"/>
        <path d="M0,0V25.21H19.86V6.15L13.71,0ZM14.09,5.77V2.26L17.6,5.77Zm4.44,1.32v16.8H1.32V1.32H12.77V7.09Z" fill="#fff"/>
      </g>
    </g>
  </g>
</svg>
