<svg xmlns="http://www.w3.org/2000/svg" width="50" height="52" viewBox="0 0 50 52">
  <title>mov</title>
  <g id="Layer_2" data-name="Layer 2">
    <g id="Layer_1-2" data-name="Layer 1">
      <g>
        <path d="M31.5,25.3l-9.5-6a.75.75,0,0,0-.9,0,.81.81,0,0,0-.4.8V32a1.23,1.23,0,0,0,.4.8.6.6,0,0,0,.4.1.9.9,0,0,0,.5-.1l9.5-6a1,1,0,0,0,.4-.7A1,1,0,0,0,31.5,25.3Zm-9.1,5.2V21.6l7,4.5Z" fill="#121212"/>
        <path d="M49.1,0H.9A.88.88,0,0,0,0,.8V51.1a.9.9,0,0,0,.9.9H49.1a.9.9,0,0,0,.9-.9V.8A.88.88,0,0,0,49.1,0ZM8.6,25.1H1.7V15.86H8.6ZM1.7,26.9H8.6V37.58H1.7Zm8.6,8.6V1.7H39.6V50.2H10.3Zm38-10.4H41.4V15.86h6.9Zm-6.9,1.8h6.9V37.58H41.4ZM48.3,1.7V14.26H41.4V1.7ZM1.7,1.7H8.6V14.26H1.7Zm0,48.5v-11H8.6v11Zm46.6,0H41.4v-11h6.9Z" fill="#121212"/>
      </g>
    </g>
  </g>
</svg>
