<svg xmlns="http://www.w3.org/2000/svg" width="44.24" height="52" viewBox="0 0 44.24 52">
  <title>msg</title>
  <g id="Layer_2" data-name="Layer 2">
    <g id="Layer_1-2" data-name="Layer 1">
      <g>
        <rect x="9.41" y="14.27" width="1.8" height="1.8"/>
        <rect x="15.68" y="14.27" width="1.8" height="1.8"/>
        <rect x="21.95" y="14.27" width="1.8" height="1.8"/>
        <path d="M43.35,22.16H32.7V.89A.84.84,0,0,0,31.81,0H.89A.85.85,0,0,0,0,.89v28.8a.84.84,0,0,0,.89.89H6.72v4.48a.86.86,0,0,0,.54.81.92.92,0,0,0,1-.18l5.11-5.11h2.33V46.71a.84.84,0,0,0,.89.89H31.72l4.13,4.13A.9.9,0,0,0,37.37,51v-3.5h6a.84.84,0,0,0,.89-.89V23.06A.85.85,0,0,0,43.35,22.16ZM13,28.8a.81.81,0,0,0-.63.27L8.51,32.92V29.69a.84.84,0,0,0-.89-.89H1.8V1.8H30.91v27Zm29.45,17h-6a.84.84,0,0,0-.89.89V49L32.7,46.09a.81.81,0,0,0-.63-.27H17.47V30.59H31.81a.84.84,0,0,0,.89-.89V24h9.74V45.82Z"/>
      </g>
    </g>
  </g>
</svg>
