<?xml version="1.0" encoding="UTF-8"?>
<svg width="50px" height="52px" viewBox="0 0 50 52" version="1.1" xmlns="http://www.w3.org/2000/svg" xmlns:xlink="http://www.w3.org/1999/xlink">
    <!-- Generator: Sketch 42 (36781) - http://www.bohemiancoding.com/sketch -->
    <title>006-picture</title>
    <desc>Created with Sketch.</desc>
    <defs></defs>
    <g id="Symbols" stroke="none" stroke-width="1" fill="none" fill-rule="evenodd">
        <g id="photos-copy" fill-rule="nonzero" fill="#000000">
            <g id="006-picture">
                <g id="Capa_1">
                    <g id="Group">
                        <path d="M10.9313185,20.2969358 C13.5136322,20.2969358 15.6141271,18.1964409 15.6141271,15.614968 C15.6141271,13.0318133 13.5136322,10.9313185 10.9313185,10.9313185 C8.34900469,10.9313185 6.24850981,13.0318133 6.24850981,15.6141271 C6.24850981,18.1964409 8.34900469,20.2969358 10.9313185,20.2969358 Z M10.9313185,12.6130598 C12.5861519,12.6130598 13.9323858,13.9601345 13.9323858,15.6141271 C13.9323858,17.2681197 12.5861519,18.6151945 10.9313185,18.6151945 C9.27648502,18.6151945 7.93025111,17.2689606 7.93025111,15.614968 C7.93025111,13.9609754 9.27648502,12.6130598 10.9313185,12.6130598 Z" id="Shape"></path>
                        <path d="M0,0 L0,40 L0,52 L50,52 L50,40 L50,0 L0,0 Z M2,2 L48,2 L48,28.727 L37.676,19.263 C37.48,19.084 37.222,18.995 36.956,19.001 C36.691,19.013 36.441,19.13 36.262,19.326 L26.468,30.053 L21.725,25.31 C21.351,24.937 20.753,24.918 20.357,25.266 L3.622,40 L2,40 L2,2 Z M48,50 L2,50 L2,42 L48,42 L48,50 Z M6.649,40 L20.973,27.389 L31.275,37.69 C31.666,38.081 32.298,38.081 32.689,37.69 C33.08,37.299 33.08,36.667 32.689,36.276 L27.882,31.469 L37.063,21.415 L48,31.44 L48,40 L6.649,40 Z" id="Shape"></path>
                    </g>
                </g>
            </g>
        </g>
    </g>
</svg>